<svg version="1.2" xmlns="http://www.w3.org/2000/svg" viewBox="0 0 602 357" width="602" height="357">
	<title>Logo-07-svg</title>
	<style>
		.s0 { fill: #000000 } 
	</style>
	<path id="Layer" fill-rule="evenodd" class="s0" d="m552.6 355.6h-505.3c-26.1 0-47.3-21.2-47.3-47.3v-260.6c0-26.1 21.2-47.4 47.3-47.4h505.3c26.2 0 47.4 21.3 47.4 47.4v260.6c0 26.1-21.2 47.3-47.4 47.3zm-505.3-335.2c-15 0-27.3 12.2-27.3 27.3v260.6c0 15.1 12.3 27.3 27.4 27.3h505.3c15 0 27.3-12.2 27.3-27.3v-260.6c0-15.1-12.3-27.3-27.3-27.3z"/>
	<g id="Layer">
		<g id="Layer">
			<path id="Layer" class="s0" d="m158.1 103.2c4.1 1.1 4.7 4.6 5.8 8.1-1.9 0-3.6 0-5.4 0-7.8 0.2-14 6.5-14.2 14.4 0 3.7 0 7.4 0 11.3h-1.6c-12.7 0-25.4 0-38.1 0-1.2 0-1.7-0.4-2.1-1.4-0.6-1.9-1.3-3.8-2-5.7-1.3-3.5 0.2-6.6 3.7-7.9q25.5-9.3 51-18.6c0.2 0 0.4-0.2 0.5-0.3q1.2 0 2.4 0z"/>
			<path id="Layer" fill-rule="evenodd" class="s0" d="m232.9 209.3c-1.1 2.5-3 3.3-5.7 3.3-9.4-0.1-18.9 0-28.3-0.1-7.2-0.1-12.8-6.1-12.8-13.3 0.1-7.1 5.8-12.8 13-12.9 9.8-0.1 19.5-0.1 29.2-0.1 2.4 0 3.8 1.4 4.6 3.5zm-33.6-5.5c2.4 0 4.3-1.9 4.4-4.3 0-2.4-2.1-4.5-4.5-4.5-2.3 0.1-4.3 2.1-4.3 4.5 0 2.3 2 4.3 4.4 4.3z"/>
			<path id="Layer" class="s0" d="m219.7 177.5c-0.6 0-1.1 0-1.7 0-6.2 0-12.4-0.1-18.7 0-11.4 0-20.6 8.4-21.9 19.9-1.2 10.7 6.3 21 17.3 23.4 1.7 0.4 3.5 0.5 5.3 0.5 6 0.1 12 0 18 0h1.7c0 0.5 0 0.8 0 1.1 0 6.2 0.1 12.4 0 18.6 0 6.7-5.1 11.8-11.8 11.8q-56.4 0.1-112.8 0c-6.8 0-11.8-5.1-11.9-11.9q0-41.6 0-83.3c0-6.8 5.1-11.8 12.2-11.8 16.1 0 32.2 0 48.3 0q31.9 0 63.8 0c5.8 0 10.2 3.2 11.7 8.4 0.3 1 0.5 2 0.5 3q0.1 9.7 0 19.4c0 0.3 0 0.5 0 0.9z"/>
			<path id="Layer" class="s0" d="m204.1 137h-50.9c0-0.4-0.1-0.8-0.1-1.1 0-3.3 0-6.6 0-9.8 0-3.6 2.4-6 6-6q19.6-0.1 39.1 0c3.6 0 6 2.4 6 6 0.1 3.4 0 6.9 0 10.3 0 0.2 0 0.3-0.1 0.6z"/>
		</g>
		<g id="Layer">
			<path id="Layer" class="s0" d="m324.1 202.9q-0.3 1-0.7 1.6-0.4 0.5-1.3 0.8-0.8 0.4-2.1 0.4-1.4 0.2-3.4 0.1-2.3 0.1-3.7-0.1-1.4-0.1-2.2-0.4-0.8-0.3-1.2-0.8-0.4-0.6-0.5-1.6l-8.4-33.1h-0.1l-7.9 33.1q-0.2 0.9-0.6 1.5-0.3 0.6-1.1 0.9-0.8 0.4-2.1 0.4-1.4 0.2-3.6 0.1-2.4 0.1-3.7-0.1-1.4-0.1-2.3-0.4-0.8-0.3-1.1-0.8-0.4-0.6-0.6-1.6l-11.9-45.5q-0.3-1.5-0.4-2.3 0-0.8 0.5-1.3 0.5-0.4 1.6-0.5 1.2-0.1 3.2-0.1 1.9 0 3 0 1.2 0.1 1.7 0.3 0.6 0.2 0.8 0.7 0.2 0.4 0.3 1.2l9.2 39.9 9.5-39.7q0.2-0.7 0.4-1.2 0.3-0.5 0.9-0.8 0.7-0.2 1.7-0.3 1.1-0.1 2.9-0.1 2 0 3.1 0.1 1.2 0 1.8 0.3 0.6 0.3 0.9 0.7 0.3 0.5 0.4 1.3l9.9 39.7h0.1l9.1-39.8q0.2-0.7 0.3-1.1 0.3-0.5 0.8-0.8 0.6-0.2 1.6-0.3 1.1-0.1 3-0.1 1.7 0 2.7 0.1 1 0.1 1.5 0.5 0.4 0.5 0.3 1.3 0 0.9-0.4 2.4l-12 45.4z"/>
			<path id="Layer" fill-rule="evenodd" class="s0" d="m371.1 204.4q0 0.5-0.4 0.8-0.4 0.4-1.3 0.5-0.9 0.1-2.5 0.2-1.9-0.1-2.7-0.2-0.8-0.1-1.2-0.5-0.3-0.3-0.3-0.8v-2.9q-2.2 2.4-5.1 3.7-2.8 1.3-6.3 1.3-2.8 0-5.2-0.7-2.4-0.8-4.2-2.2-1.7-1.5-2.7-3.7-1-2.2-1-5.1 0-3.1 1.3-5.4 1.2-2.3 3.6-3.9 2.5-1.5 6.1-2.2 3.6-0.7 8.4-0.7h3.5v-2.2q0-1.7-0.3-3-0.3-1.2-1.1-2.1-0.8-0.8-2.1-1.2-1.3-0.4-3.3-0.4-2.5 0-4.5 0.5-2 0.6-3.5 1.3-1.6 0.7-2.6 1.2-1 0.6-1.7 0.6-0.4 0-0.8-0.3-0.3-0.3-0.5-0.8-0.3-0.5-0.4-1.3-0.1-0.8-0.1-1.7 0-1.2 0.2-2 0.2-0.7 0.8-1.3 0.6-0.6 2-1.3 1.4-0.7 3.3-1.3 1.9-0.6 4.1-1 2.2-0.4 4.6-0.3 4.3 0 7.3 0.8 3 0.8 4.9 2.5 1.9 1.7 2.8 4.4 0.9 2.7 0.9 6.4v24.3zm-10-15.5zm-3.8 0.1q-2.5 0-4.2 0.3-1.8 0.4-2.8 1.1-1.1 0.7-1.6 1.8-0.5 1-0.5 2.3 0 2.3 1.4 3.6 1.4 1.3 4 1.3 2.1 0 3.9-1.1 1.8-1.1 3.6-3.2v-6.1z"/>
			<path id="Layer" class="s0" d="m391.4 204.2q0 0.4-0.3 0.8-0.2 0.3-0.8 0.5-0.6 0.2-1.6 0.3-0.9 0.1-2.4 0.1-1.5 0-2.5-0.1-1-0.2-1.5-0.3-0.6-0.2-0.9-0.5-0.2-0.4-0.2-0.8v-53q0-0.4 0.2-0.7 0.3-0.4 0.9-0.6 0.6-0.2 1.5-0.3 1-0.1 2.5-0.1 1.5 0 2.4 0.1 1 0.1 1.6 0.3 0.6 0.3 0.8 0.6 0.3 0.3 0.3 0.7z"/>
			<path id="Layer" class="s0" d="m411.6 204.2q0 0.4-0.2 0.8-0.2 0.3-0.8 0.5-0.6 0.2-1.6 0.3-0.9 0.1-2.4 0.1-1.5 0-2.5-0.1-1-0.2-1.5-0.3-0.6-0.2-0.9-0.5-0.2-0.4-0.2-0.8v-53q0-0.4 0.2-0.7 0.3-0.4 0.9-0.6 0.5-0.2 1.5-0.3 1-0.1 2.5-0.1 1.5 0 2.4 0.1 1 0.1 1.6 0.3 0.6 0.3 0.8 0.6 0.2 0.3 0.2 0.7z"/>
			<path id="Layer" fill-rule="evenodd" class="s0" d="m455 185.2q0 1.9-0.8 2.7-0.8 0.9-2.3 0.9h-21.9q0 2.3 0.6 4.2 0.5 1.9 1.7 3.2 1.2 1.3 3.1 2 1.8 0.7 4.5 0.7c1.7 0 3.3-0.1 4.6-0.4q2.1-0.4 3.5-0.8 1.5-0.5 2.5-0.9 0.9-0.4 1.5-0.4 0.4 0 0.6 0.2 0.3 0.1 0.4 0.5 0.2 0.3 0.3 1 0 0.7 0 1.7 0 0.9 0 1.5-0.1 0.6-0.1 1.1-0.1 0.4-0.3 0.7-0.1 0.3-0.4 0.6-0.3 0.3-1.4 0.8-1.2 0.5-3 0.9-1.8 0.5-4.2 0.8-2.3 0.4-5 0.4-4.8 0-8.4-1.2-3.6-1.3-6-3.7-2.4-2.5-3.6-6.2-1.2-3.8-1.2-8.8c0-3.4 0.4-6.1 1.2-8.7q1.3-3.8 3.7-6.5 2.4-2.7 5.8-4.1 3.4-1.4 7.6-1.4 4.6 0 7.8 1.3 3.2 1.4 5.2 3.7 2.1 2.4 3.1 5.6 0.9 3.2 0.9 7zm-9.8-2.9q0.1-4.2-1.7-6.7-1.9-2.4-5.7-2.4-1.9 0-3.4 0.7-1.4 0.7-2.3 2-1 1.2-1.5 2.9-0.5 1.6-0.6 3.5z"/>
			<path id="Layer" class="s0" d="m484.1 200.7q0 1.8-0.2 2.7-0.2 1-0.6 1.3-0.4 0.4-1.1 0.7-0.7 0.3-1.6 0.6-1 0.2-2.1 0.3-1.1 0.1-2.2 0.1-3.1 0-5.3-0.8-2.2-0.7-3.6-2.3-1.5-1.6-2.2-4-0.7-2.4-0.7-5.8v-18.4h-4.3q-0.8 0-1.2-0.9-0.4-1-0.4-3.2 0-1.2 0.1-2 0.1-0.8 0.3-1.3 0.2-0.4 0.5-0.6 0.4-0.2 0.7-0.2h4.3v-8.1q0-0.4 0.2-0.7 0.3-0.3 0.9-0.5 0.5-0.2 1.5-0.3 1-0.2 2.5-0.1c0.9 0 1.8 0 2.5 0.1q0.9 0.1 1.5 0.3 0.6 0.2 0.8 0.5 0.2 0.3 0.2 0.7v8.1h7.9q0.4 0 0.7 0.2 0.3 0.2 0.5 0.6 0.2 0.5 0.3 1.3 0.1 0.8 0.1 2 0 2.2-0.4 3.2-0.4 0.9-1.2 0.9h-7.8v16.9q0 3 0.9 4.4 0.9 1.5 3.3 1.5 0.8 0 1.4-0.1 0.7-0.2 1.2-0.4 0.5-0.1 0.8-0.3 0.4-0.1 0.7-0.1 0.2 0 0.4 0.1 0.2 0.2 0.4 0.6 0.1 0.4 0.2 1.1 0.1 0.8 0.1 1.9z"/>
			<path id="Layer" class="s0" d="m516.8 194.1q0 3-1.2 5.4-1.1 2.3-3.2 3.9-2.1 1.6-5 2.3-2.8 0.8-6.2 0.8-2 0-3.8-0.3-1.9-0.3-3.3-0.7-1.5-0.5-2.4-1-1-0.5-1.5-0.9-0.4-0.4-0.7-1.3-0.2-0.9-0.2-2.7 0-1.2 0.1-1.9 0.1-0.7 0.2-1.1 0.2-0.4 0.4-0.6 0.3-0.1 0.6-0.1 0.5 0 1.3 0.5 0.9 0.5 2.2 1.1 1.3 0.6 3 1.1 1.7 0.6 3.9 0.6 1.4 0 2.4-0.3 1.1-0.3 1.9-0.8 0.8-0.6 1.2-1.4 0.4-0.8 0.4-1.8 0-1.2-0.8-2.1-0.7-0.9-1.9-1.5-1.3-0.7-2.8-1.2-1.6-0.6-3.2-1.3-1.7-0.7-3.2-1.5-1.6-0.9-2.8-2.2-1.2-1.3-2-3.1-0.7-1.9-0.7-4.4 0-2.6 1-4.7 1-2.2 2.9-3.7 1.9-1.6 4.6-2.4 2.7-0.9 6.1-0.9 1.7 0 3.3 0.3 1.6 0.2 2.9 0.6 1.3 0.3 2.2 0.8 0.9 0.4 1.2 0.7 0.4 0.3 0.6 0.6 0.2 0.3 0.2 0.7 0.1 0.4 0.2 1.1 0 0.6 0 1.5 0 1.1 0 1.8-0.1 0.7-0.2 1.1-0.2 0.4-0.4 0.5-0.2 0.2-0.6 0.2-0.3 0-1.1-0.4-0.8-0.5-1.9-1-1.2-0.4-2.7-0.9-1.5-0.4-3.4-0.4-1.4 0-2.4 0.3-1 0.3-1.7 0.8-0.6 0.5-0.9 1.2-0.4 0.7-0.4 1.5 0.1 1.3 0.8 2.1 0.8 0.9 2 1.5 1.3 0.7 2.9 1.3 1.6 0.5 3.2 1.2 1.6 0.6 3.2 1.5 1.6 0.9 2.9 2.2 1.2 1.3 2 3.1 0.8 1.8 0.8 4.3z"/>
		</g>
	</g>
</svg>