<svg version="1.2" xmlns="http://www.w3.org/2000/svg" viewBox="0 0 599 355" width="599" height="355">
	<title>Logo-06-svg</title>
	<style>
		.s0 { fill: #000000 } 
	</style>
	<path id="Layer" fill-rule="evenodd" class="s0" d="m552.6 355.6h-505.3c-26.1 0-47.3-21.2-47.3-47.3v-260.6c0-26.1 21.2-47.4 47.3-47.4h505.3c26.2 0 47.4 21.3 47.4 47.4v260.6c0 26.1-21.2 47.3-47.4 47.3zm-505.3-335.2c-15 0-27.3 12.2-27.3 27.3v260.6c0 15.1 12.3 27.3 27.4 27.3h505.3c15 0 27.3-12.2 27.3-27.3v-260.6c0-15.1-12.3-27.3-27.3-27.3z"/>
	<g id="Layer">
		<path id="Layer" fill-rule="evenodd" class="s0" d="m69.4 155.1l73-51.8 73.3 51.8zm139.1 27q0 0 0 0 0 0 0 0zm21.9 24.7v21.1c0 13.7-11.1 24.8-24.9 24.8-13.7 0-24.8-11.1-24.8-24.8v-21.1c0-12.6 9.4-23.2 21.9-24.7v-13.7c0-1.7 1.3-3 2.9-3 1.6 0 3 1.4 3 3v13.7c12.5 1.5 21.9 12.1 21.9 24.7zm-11.5-13.4c-7.4-7.4-19.4-7.4-26.8 0-3.5 3.5-5.5 8.4-5.5 13.4v21.1c0 10.4 8.5 18.9 19 18.9 10.4 0 18.9-8.5 18.9-18.9v-21.1c0-5-2-9.9-5.5-13.4h-0.1zm-13.6 8c2.6 0 4.7 2.1 4.7 4.7v4.9c-0.1 2.6-2.2 4.7-4.7 4.7-2.6 0-4.8-2.1-4.8-4.7v-4.9c0-2.6 2.1-4.7 4.8-4.7zm-130.8 29.2v-7.9h4.4v-3.8h4.8v-45.1h-9.8v-10.8h120c-0.8 1.7-1.1 3.5-1.1 5.3v6.2q-1.2 0.5-2.4 1c-2.6 1.3-5 2.9-7.2 4.7v-6.4h-15.1v45.1h2.7v8.9c0 3.7 0.6 7.5 1.8 11h-106.6v-8.2zm32.1-7.9h5.5v-3.8h4.7v-45.1h-15v45.1h4.8zm33.1 0h5.6v-3.7h4.7v-45.1h-15.1v45.1h4.8zm27.7-80.7l-24.8-19-24.7 19z"/>
		<g id="Layer">
			<path id="Layer" class="s0" d="m309.6 160.5q0 0.9-0.3 1.7-0.3 0.7-0.9 1.2-0.5 0.5-1.3 0.7-0.7 0.2-1.5 0.2h-4.5q-1.4 0-2.4-0.3-1.1-0.3-1.9-1-0.9-0.8-1.7-2-0.8-1.3-1.8-3.3l-13-24.4q-1.1-2.2-2.3-4.7-1.2-2.5-2.1-4.9h-0.1q0.2 2.9 0.3 5.8 0 2.9 0 5.9v27.3q0.1 0.4-0.2 0.8-0.2 0.3-0.7 0.5-0.6 0.2-1.5 0.3-0.9 0.2-2.4 0.2c-1 0-1.7-0.1-2.3-0.2q-1-0.1-1.5-0.3-0.5-0.2-0.7-0.5-0.2-0.4-0.2-0.8v-46.9q0-1.9 1.1-2.8 1.1-1 2.7-1h5.7q1.5 0 2.6 0.3 1 0.3 1.9 0.9 0.8 0.6 1.5 1.6 0.7 1.1 1.5 2.7l10.2 19.1q0.9 1.7 1.7 3.4 0.9 1.6 1.7 3.3 0.8 1.7 1.6 3.3 0.7 1.6 1.5 3.2-0.1-2.8-0.2-5.9 0-3 0-5.8v-24.5q0-0.4 0.2-0.7 0.2-0.3 0.8-0.6 0.6-0.2 1.5-0.3 0.9-0.1 2.4-0.1 1.3 0 2.3 0.1 0.9 0.1 1.4 0.3 0.5 0.3 0.7 0.6 0.2 0.3 0.2 0.7v46.9z"/>
			<path id="Layer" fill-rule="evenodd" class="s0" d="m353.6 143.8q0 1.9-0.8 2.8-0.8 0.8-2.3 0.8h-21.9q0 2.3 0.6 4.2 0.5 1.9 1.7 3.2 1.2 1.3 3.1 2 1.9 0.7 4.5 0.7c1.7 0 3.3-0.1 4.7-0.4q2-0.4 3.4-0.8 1.5-0.5 2.5-0.9 1-0.4 1.6-0.4 0.3 0 0.6 0.2 0.2 0.1 0.4 0.5 0.1 0.3 0.2 1 0 0.7 0 1.7 0 0.9 0 1.5 0 0.6-0.1 1.1-0.1 0.4-0.3 0.7-0.1 0.3-0.4 0.6-0.2 0.3-1.4 0.8-1.2 0.5-3 0.9-1.8 0.5-4.1 0.8-2.4 0.4-5 0.4-4.8 0-8.5-1.2-3.6-1.2-6-3.7-2.4-2.5-3.6-6.2-1.2-3.8-1.2-8.8c0-3.4 0.4-6.1 1.3-8.6q1.2-3.9 3.6-6.6 2.4-2.7 5.8-4.1 3.4-1.4 7.7-1.4 4.5 0 7.7 1.4 3.2 1.3 5.3 3.6 2 2.4 3 5.6 0.9 3.3 0.9 7zm-9.8-2.8q0.1-4.3-1.7-6.8-1.8-2.4-5.7-2.4-1.9 0-3.3 0.7-1.5 0.7-2.4 2-1 1.2-1.5 2.9-0.5 1.7-0.6 3.5z"/>
			<path id="Layer" class="s0" d="m382.7 159.3q0 1.8-0.2 2.7-0.2 1-0.6 1.4-0.4 0.3-1.1 0.6-0.7 0.3-1.6 0.6-1 0.2-2.1 0.3-1.1 0.1-2.2 0.1-3 0-5.3-0.7-2.2-0.8-3.6-2.4-1.5-1.6-2.2-4-0.7-2.4-0.7-5.7v-18.5h-4.3q-0.7 0-1.1-0.9-0.4-1-0.4-3.2 0-1.2 0.1-2 0.1-0.8 0.3-1.2 0.2-0.5 0.5-0.7 0.3-0.2 0.7-0.2h4.2v-8q0-0.5 0.3-0.8 0.2-0.3 0.8-0.5 0.6-0.2 1.6-0.3 0.9-0.1 2.4-0.1c1 0 1.8 0 2.5 0.1q1 0.1 1.5 0.3 0.6 0.2 0.8 0.5 0.3 0.3 0.3 0.8v8h7.8q0.4 0 0.7 0.2 0.3 0.2 0.5 0.7 0.2 0.4 0.3 1.2 0.1 0.8 0.1 2 0 2.2-0.4 3.2-0.4 0.9-1.2 0.9h-7.8v16.9q0 3 0.9 4.4 0.9 1.5 3.3 1.5 0.8 0 1.5-0.1 0.6-0.2 1.1-0.3 0.5-0.2 0.9-0.4 0.3-0.1 0.6-0.1 0.2 0 0.4 0.1 0.3 0.2 0.4 0.6 0.1 0.4 0.2 1.1 0.1 0.8 0.1 1.9z"/>
			<path id="Layer" fill-rule="evenodd" class="s0" d="m304.4 218.2q0 2.8-0.8 5.1-0.8 2.2-2.1 4-1.4 1.7-3.2 3-1.9 1.2-4.2 2-2.2 0.8-4.8 1.2-2.6 0.4-5.7 0.4h-13.9q-1.3 0-2.2-0.8-0.9-0.8-0.9-2.6v-45.5q0-1.7 0.9-2.5 0.9-0.8 2.2-0.8h13.1q4.8 0 8.2 0.8 3.3 0.8 5.6 2.4 2.2 1.7 3.5 4.2 1.2 2.5 1.2 5.9 0 1.9-0.5 3.5-0.5 1.7-1.4 3.1-1 1.4-2.3 2.4-1.4 1-3.1 1.7 2.2 0.4 4.1 1.4 1.9 1 3.3 2.6 1.4 1.6 2.2 3.7 0.8 2.2 0.8 4.8zm-13.7-21.9q0-1.6-0.5-2.9-0.5-1.2-1.5-2.1-0.9-0.8-2.4-1.2-1.5-0.5-3.9-0.5h-5.4v13.6h5.9q2.3 0 3.7-0.6 1.4-0.5 2.3-1.4 0.9-1 1.3-2.3 0.5-1.2 0.5-2.6zm2.7 22.3q0-1.8-0.6-3.2-0.6-1.5-1.8-2.4-1.2-1-3-1.5-1.8-0.6-4.7-0.6h-6.3v14.9h7.7q2.2 0 3.7-0.5 1.5-0.4 2.6-1.3 1.1-1 1.7-2.3 0.7-1.4 0.7-3.1z"/>
			<path id="Layer" fill-rule="evenodd" class="s0" d="m343 232.6q-0.1 0.6-0.4 0.9-0.5 0.4-1.3 0.5-0.9 0.1-2.6 0.1-1.8 0-2.6-0.1-0.8-0.2-1.2-0.5-0.3-0.3-0.3-0.9v-2.8q-2.3 2.4-5.1 3.7-2.8 1.3-6.3 1.3-2.9 0-5.3-0.7-2.4-0.8-4.1-2.2-1.8-1.5-2.7-3.7-1-2.2-1-5.1 0-3.1 1.2-5.5 1.3-2.3 3.7-3.8 2.4-1.5 6.1-2.2 3.6-0.7 8.4-0.8h3.5v-2.1q0-1.7-0.3-3-0.4-1.3-1.2-2.1-0.8-0.9-2.1-1.3-1.3-0.4-3.2-0.4-2.5 0-4.5 0.6-2 0.6-3.6 1.2-1.5 0.7-2.5 1.3-1.1 0.6-1.7 0.6-0.5 0-0.8-0.3-0.3-0.3-0.6-0.8-0.2-0.6-0.3-1.3-0.1-0.8-0.1-1.7 0-1.3 0.2-2 0.2-0.7 0.8-1.3 0.5-0.6 1.9-1.3 1.4-0.7 3.3-1.3 1.9-0.6 4.2-1 2.2-0.4 4.6-0.4 4.2 0 7.2 0.9 3 0.8 5 2.5 1.9 1.7 2.8 4.4 0.9 2.7 0.9 6.4v24.2zm-10-15.4zm-3.8 0q-2.5 0-4.2 0.4-1.8 0.3-2.9 1.1-1.1 0.7-1.6 1.7-0.5 1.1-0.5 2.4 0 2.3 1.5 3.5 1.4 1.3 3.9 1.3 2.2 0 4-1.1 1.7-1.1 3.6-3.1v-6.2z"/>
			<path id="Layer" class="s0" d="m387.4 232.5q0 0.4-0.2 0.7-0.2 0.3-0.8 0.5-0.6 0.2-1.6 0.3-0.9 0.1-2.4 0.1c-1 0-1.8 0-2.5-0.1q-1-0.1-1.5-0.3-0.6-0.2-0.8-0.5-0.3-0.3-0.3-0.7v-20.5q0-2.6-0.4-4.1-0.3-1.5-1.1-2.6-0.7-1-1.8-1.6-1.2-0.6-2.7-0.6-2 0-3.9 1.4-2 1.4-4.1 4.1v23.9q0 0.4-0.3 0.7-0.2 0.3-0.8 0.5-0.6 0.2-1.6 0.3-0.9 0.1-2.4 0.1-1.5 0-2.5-0.1-1-0.1-1.5-0.3-0.6-0.2-0.9-0.5-0.2-0.3-0.2-0.7v-36q0-0.4 0.2-0.7 0.2-0.3 0.7-0.5 0.5-0.2 1.4-0.3 0.8-0.1 2-0.1 1.3 0 2.2 0.1 0.8 0.1 1.3 0.3 0.5 0.2 0.7 0.5 0.2 0.3 0.2 0.7v4.2q2.9-3.2 6-4.9 3.1-1.6 6.5-1.6 3.6 0 6.2 1.2 2.5 1.3 4 3.3 1.6 2.1 2.3 4.9 0.7 2.8 0.7 6.7v22.2z"/>
			<path id="Layer" class="s0" d="m430.8 232.6q0 0.4-0.2 0.7-0.2 0.3-0.8 0.5-0.6 0.1-1.6 0.2-1 0.1-2.6 0.1c-1.1 0-2 0-2.7-0.1q-1 0-1.7-0.2-0.6-0.2-1-0.5-0.4-0.3-0.6-0.9l-12-18.9v19q0 0.4-0.3 0.7-0.2 0.3-0.8 0.5-0.6 0.2-1.5 0.3-1 0.1-2.5 0.1-1.5 0-2.5-0.1-0.9-0.1-1.5-0.3-0.6-0.2-0.8-0.5-0.3-0.3-0.3-0.7v-53q0-0.4 0.3-0.8 0.2-0.3 0.8-0.5 0.6-0.2 1.5-0.3 1-0.2 2.5-0.2 1.5 0 2.5 0.2 0.9 0.1 1.5 0.3 0.6 0.2 0.8 0.5 0.3 0.4 0.3 0.8v31.6l10.6-14.4q0.4-0.4 0.8-0.8 0.4-0.4 1-0.6 0.7-0.2 1.7-0.3 1-0.1 2.5-0.1c1 0 1.8 0.1 2.5 0.1q1.1 0.1 1.7 0.3 0.6 0.2 0.8 0.5 0.3 0.3 0.3 0.8 0 0.6-0.3 1.3-0.3 0.7-0.9 1.4l-10.6 12 12.2 18.8q0.5 0.8 0.7 1.4 0.2 0.6 0.2 1.1z"/>
			<path id="Layer" class="s0" d="m448 184.4q0 3-1.3 4.2-1.2 1.2-4.6 1.2-3.4 0-4.6-1.2-1.2-1.1-1.2-4c0-2 0.4-3.5 1.2-4.3q1.2-1.2 4.7-1.2c2.3 0 3.8 0.4 4.6 1.2q1.2 1.1 1.2 4.1zm-0.8 48.1q0 0.4-0.2 0.7-0.3 0.3-0.9 0.5-0.5 0.2-1.5 0.3-1 0.1-2.5 0.1-1.4 0-2.4-0.1-1-0.1-1.6-0.3-0.6-0.2-0.8-0.5-0.2-0.3-0.2-0.7v-35.9q0-0.4 0.2-0.7 0.2-0.3 0.8-0.5 0.6-0.2 1.6-0.4 1-0.1 2.4-0.1 1.5 0 2.5 0.1 1 0.2 1.5 0.4 0.6 0.2 0.9 0.5 0.2 0.3 0.2 0.7z"/>
			<path id="Layer" class="s0" d="m491.7 232.5q0 0.4-0.2 0.7-0.3 0.3-0.8 0.5-0.6 0.2-1.6 0.3-1 0.1-2.4 0.1c-1 0-1.8 0-2.5-0.1q-1-0.1-1.6-0.3-0.5-0.2-0.8-0.5-0.2-0.3-0.2-0.7v-20.5q0-2.6-0.4-4.1-0.4-1.5-1.1-2.6-0.7-1-1.9-1.6-1.1-0.6-2.7-0.6-1.9 0-3.9 1.4-1.9 1.4-4.1 4.1v23.9q0 0.4-0.2 0.7-0.3 0.3-0.8 0.5-0.6 0.2-1.6 0.3-1 0.1-2.5 0.1-1.4 0-2.4-0.1-1-0.1-1.6-0.3-0.6-0.2-0.8-0.5-0.2-0.3-0.2-0.7v-36q0-0.4 0.2-0.7 0.2-0.3 0.7-0.5 0.5-0.2 1.3-0.3 0.9-0.1 2.1-0.1 1.3 0 2.2 0.1 0.8 0.1 1.3 0.3 0.4 0.2 0.6 0.5 0.2 0.3 0.2 0.7v4.2q3-3.2 6.1-4.9 3.1-1.6 6.4-1.6 3.7 0 6.2 1.2 2.5 1.3 4.1 3.3 1.5 2.1 2.2 4.9 0.7 2.8 0.7 6.7v22.2z"/>
			<path id="Layer" fill-rule="evenodd" class="s0" d="m534.1 199q0 2-0.4 2.9-0.5 0.9-1.1 0.9h-4.3q0.9 1 1.3 2.2 0.4 1.3 0.4 2.6 0 3.1-1.1 5.6-1 2.4-3 4.1-1.9 1.7-4.7 2.5-2.7 0.9-6.1 0.9-1.8 0-3.3-0.4-1.6-0.4-2.5-1-0.4 0.5-0.8 1.2-0.4 0.8-0.4 1.6 0 1.2 1 2 1.1 0.7 2.9 0.8l8.8 0.3q3 0.1 5.4 0.9 2.4 0.7 4.1 2.1 1.6 1.3 2.5 3.2 0.8 1.9 0.8 4.4 0 2.6-1.1 5-1.2 2.3-3.5 4.1-2.4 1.7-5.9 2.7-3.5 1-8.3 1c-3.1 0-5.6-0.2-7.8-0.7q-3.3-0.7-5.3-2-2.1-1.3-3.1-3.1-0.9-1.8-0.9-3.9 0-1.4 0.3-2.6 0.4-1.2 1-2.3 0.7-1.1 1.7-2.1 1-1 2.2-2-1.7-0.9-2.7-2.5-0.9-1.6-0.9-3.5 0-2.4 1.1-4.3 1.1-2 2.8-3.5-1.4-1.5-2.3-3.4-0.8-2-0.8-5 0-3.1 1.1-5.6 1.1-2.5 3.1-4.2 1.9-1.7 4.7-2.6 2.7-0.9 6-0.9 1.7 0 3.3 0.2 1.5 0.2 2.9 0.6h11.4q0.7 0 1.1 0.8 0.4 0.9 0.4 3zm-10.6 37.3q0-1.8-1.5-2.8-1.4-1-4-1.1l-7.2-0.2q-1.1 0.8-1.7 1.5-0.6 0.7-1 1.4-0.4 0.6-0.5 1.2-0.1 0.6-0.1 1.3 0 2 2 3 2.1 1.1 5.8 1.1 2.3 0 3.8-0.5 1.6-0.4 2.6-1.2 1-0.8 1.4-1.7 0.4-1 0.4-2zm-2.4-28.8q0-2.9-1.6-4.5-1.6-1.6-4.6-1.6-1.5 0-2.6 0.5-1.1 0.5-1.9 1.4-0.7 0.9-1.1 2-0.4 1.2-0.4 2.4 0 2.7 1.7 4.3 1.6 1.6 4.4 1.6 1.6 0 2.7-0.4 1.1-0.5 1.9-1.4 0.7-0.8 1.1-1.9 0.4-1.1 0.4-2.4z"/>
		</g>
	</g>
</svg>