<svg version="1.2" xmlns="http://www.w3.org/2000/svg" viewBox="0 0 602 355" width="602" height="355">
	<title>Logo-05-svg</title>
	<style>
		.s0 { fill: #000000 } 
	</style>
	<path id="Layer" fill-rule="evenodd" class="s0" d="m552.6 355.6h-505.3c-26.1 0-47.3-21.2-47.3-47.3v-260.6c0-26.1 21.2-47.4 47.3-47.4h505.3c26.2 0 47.4 21.3 47.4 47.4v260.6c0 26.1-21.2 47.3-47.4 47.3zm-505.3-335.2c-15 0-27.3 12.2-27.3 27.3v260.6c0 15.1 12.3 27.3 27.4 27.3h505.3c15 0 27.3-12.2 27.3-27.3v-260.6c0-15.1-12.3-27.3-27.3-27.3z"/>
	<g id="UKszJc">
		<g id="Layer">
			<path id="Layer" class="s0" d="m367 133.2h-92.8c1.2-4.2 2.2-8.2 3.4-12.1 0.5-1.8 0.6-4.2 1.8-5.1 1.3-0.9 3.7-0.4 5.6-0.4q47.8 0 95.5 0c2 0 3.9 0.1 5.5 1.5 2.5 2.3 2.4 5.1 1.6 8q-5 18.4-10.2 36.9c-1.5 5.4-6.5 9-12.4 9-15.8 0-31.6 0-47.4 0-11.1 0-22.2 0-33.3-0.1-1.8 0-2.6 0.6-3.1 2.4-2.9 10.7-5.9 21.4-8.8 32.1-0.9 3.1-0.9 3.1-4 3.1-4.9 0-9.7 0-15 0 0.6-2.4 1.2-4.5 1.8-6.7 4.2-15.2 8.4-30.4 12.5-45.7 0.6-1.9 1.2-2.8 3.6-2.8 29.2 0.1 58.5 0 87.7 0.1 1.8 0 2.8-0.5 3.2-2.3 1.5-5.5 3-11 4.5-16.5 0.1-0.3 0.1-0.6 0.3-1.4z"/>
			<path id="Layer" class="s0" d="m173 115.6c-6.9 24.9-13.8 49.8-20.7 75 1 0 1.7 0 2.4 0 23.4 0 46.9 0 70.3 0 1.7 0 2.3-0.5 2.8-2.1 5.1-18.9 10.4-37.7 15.6-56.5 1.4-5 2.7-10 4.2-14.9 0.2-0.7 1-1.7 1.6-1.7 5.5-0.1 11.1-0.1 17-0.1-1.1 3.9-2.1 7.6-3.2 11.3q-8.5 30.9-17.1 61.9-1.9 6.8-3.9 13.6c-1.1 3.9-4.3 6.4-8.4 6.4q-47.5 0-95 0c-5.7 0-8.4-3.6-6.9-9.1 3.4-12.7 7-25.3 10.5-38q6.1-22.1 12.2-44.2c0.3-1 0.5-1.9 2-1.9 5.3 0.1 10.6 0 15.9 0 0.2 0 0.4 0.2 0.7 0.3z"/>
			<path id="Layer" class="s0" d="m454.8 115.6c7.9 15.7 15.6 30.9 23.3 46.3q-24.2 22.8-48.3 45.6-0.2-0.1-0.4-0.2 2.7-9.8 5.3-19.5-0.2-0.1-0.3-0.3-10.5 9.9-21 19.9-0.2-0.2-0.4-0.3c8.4-30.3 16.8-60.5 25.3-91.3 3.6 7 6.9 13.7 10.2 20.3q0.3 0 0.6-0.1c1.9-6.6 3.7-13.3 5.7-20.4z"/>
			<path id="Layer" class="s0" d="m378.5 207.9c2-7.1 3.9-14 5.8-20.8q5.6-20.3 11.2-40.5c2.8-10 5.6-20 8.4-30 0.1-0.5 0.8-1.2 1.2-1.2 5.6-0.1 11.1 0 16.6 0 0.1 0 0.2 0.1 0.5 0.4-1.4 4.8-2.7 9.8-4.1 14.7q-5.2 18.8-10.4 37.5c-3.5 12.8-7.1 25.5-10.6 38.3-0.3 1.4-1 1.9-2.4 1.8-4.8-0.1-9.5 0-14.3 0-0.5 0-1.1-0.1-1.9-0.2z"/>
			<path id="Layer" class="s0" d="m275.5 223.1v16.8h-2.2v-9.9c-2.5 3.5-4.9 6.8-7.6 10.5-0.9-3.6-1.7-6.9-2.6-10.7-1.5 3.3-2.7 6.1-4 8.9-0.7 1.4-0.7 1.4-2.7 1.1 2.5-5.5 5-11 7.8-17 1 4.5 1.8 8.3 2.8 12.6 2.9-4.2 5.6-8.1 8.5-12.3z"/>
			<path id="Layer" fill-rule="evenodd" class="s0" d="m194.6 240.1c1.3-5.8 2.6-11.3 3.9-17 2.6 0.1 5.1 0.1 7.5 0.4 3.1 0.3 4.9 2.6 4.8 5.7-0.4 6.5-4.9 11.3-11.4 10.9-1.5-0.1-3-0.1-4.8 0zm3.1-2.6c6.8 1.1 9.7-1.8 10.3-7.6 0.1-1.2-0.8-3.2-1.7-3.6-1.7-0.7-3.7-0.5-5.6-0.5-0.2 0-0.4 0.6-0.5 1-0.9 3.5-1.7 7-2.5 10.7z"/>
			<path id="Layer" class="s0" d="m304.8 240.7c-3.3-4.2-6.3-8.1-9.4-12.2-0.9 3.5-1.8 6.8-2.5 10.1-0.4 1.5-1 1.8-2.6 1.2 1.3-5.5 2.6-11 4.1-17 3.2 4.2 6.2 8 9.4 12.1 1-4 1.9-7.7 2.9-11.6 0.7 0 1.3-0.1 2.3-0.1-1.4 5.8-2.8 11.4-4.2 17.5z"/>
			<path id="Layer" class="s0" d="m361.8 240.7c-3.3-4.2-6.3-8.1-9.5-12.2-0.9 3.5-1.7 6.7-2.4 10-0.3 1.4-0.9 2-2.6 1.4 1.3-5.6 2.6-11.1 4.1-17.2 3.2 4.2 6.1 8 9.4 12.3 0.2-1 0.5-1.8 0.6-2.5 0.6-2.7 1.3-5.4 1.8-8.1 0.4-1.4 1.3-1.3 2.6-1-1.3 5.6-2.6 11.2-4.1 17.3z"/>
			<path id="Layer" class="s0" d="m152.5 240.7c-3.2-4.2-6.3-8.1-9.4-12.2-0.9 3.5-1.8 6.8-2.5 10.1-0.3 1.6-1 1.8-2.5 1.3 1.3-5.6 2.7-11.1 4.1-17.1 3.2 4.1 6.2 7.9 9.4 12.1 1-4 1.9-7.8 2.8-11.6h2.3c-1.4 5.7-2.7 11.4-4.2 17.4z"/>
			<path id="Layer" fill-rule="evenodd" class="s0" d="m397.6 232.5q0 0 0 0 0 0 0 0zm3.4 7.3c-1.8 0.6-2.9 0.1-3.6-1.6-0.7-1.9-1.7-3.6-3.1-5.4-0.4 1.9-1 3.7-1.4 5.5-0.2 1.4-0.8 2.1-2.6 1.5 0.5-2.3 1-4.7 1.6-7 0.6-2.7 1.3-5.4 1.9-8 0.2-1.2 0.7-1.8 1.9-1.6 1.4 0.1 2.7 0 4.1 0.2 2.1 0.4 2.8 1.4 2.7 3.5-0.2 3-1.9 4.7-4.9 5.6 1.2 2.5 2.3 4.9 3.4 7.3zm-6.1-9.3c1.3-0.1 2.2-0.1 3-0.4 1.6-0.4 2-1.7 1.8-3-0.1-0.6-1.2-1.3-2-1.5-1.6-0.6-1.8 0.7-2.1 1.9-0.1 0.8-0.4 1.7-0.7 3z"/>
			<path id="Layer" class="s0" d="m124.6 223.2c0.9 0 1.5 0.1 2.4 0.1-0.7 3.2-1.5 6.3-2.2 9.3-0.8 3.2-0.4 4.8 1.4 5.4 2.6 0.8 5.5-0.4 6.4-3.1 1.1-3.2 1.9-6.6 2.6-9.9 0.4-1.7 1.1-2.1 3-1.6-1.2 4.3-2 8.6-3.5 12.7-1.4 3.9-6.6 5.5-10.4 3.9-1.9-0.8-2.6-2.2-2.3-4.9q0.1-0.8 0.3-1.6c0.7-3.4 1.5-6.7 2.3-10.3z"/>
			<path id="Layer" class="s0" d="m185.2 237.8l6.1-0.1c0.3 1.6 0.1 2.4-1.5 2.4-2.5-0.1-5 0-7.8 0 0.9-3.8 1.8-7.4 2.6-10.9 0.5-1.9 0.5-4.7 1.7-5.6 1.5-1 4.1-0.3 6.2-0.4 0.8 0 1.6 0 2.5 0 0.1 1.8-0.7 2.5-2.3 2.2-0.4 0-0.7 0-1.1 0q-3.9 0-4.4 4.4h6.4c-0.2 0.9-0.4 1.5-0.6 2.4-1.6 0-3.2 0-4.8-0.1-1.3-0.1-1.9 0.4-2.1 1.6-0.2 1.2-0.5 2.4-0.9 4.1z"/>
			<path id="Layer" class="s0" d="m289.5 229.7c-0.3 1-0.4 1.6-0.7 2.4-1.6 0-3.3 0.1-5 0-1.1 0-1.7 0.3-1.9 1.4-0.2 1.4-0.5 2.7-0.8 4.3h6.3c-0.2 0.9-0.4 1.5-0.5 2.2h-8.9c1.3-5.4 2.5-10.6 3.8-15.9 0.1-0.4 0.7-0.8 1.1-0.9 2.6 0 5.2 0 7.8 0 0.3 1.8-0.4 2.4-2 2.3-0.5-0.1-1 0-1.5 0-3.7 0-3.8 0-4 4.2 0 0 6.3 0 6.3 0z"/>
			<path id="Layer" class="s0" d="m452.3 225.4c-0.4 1.6-0.7 2.8-1 4.3h6.4c-0.1 0.9-0.3 1.6-0.5 2.4-1.6 0-3.2 0.2-4.7 0-1.6-0.1-2.2 0.5-2.4 1.9-0.1 1.1-0.4 2.3-0.7 3.7h6.1c0.3 1.6 0.1 2.4-1.6 2.4-2.4-0.1-4.9 0-7.6 0 1.3-5.5 2.6-10.8 3.9-16 0.1-0.4 0.9-0.9 1.3-0.9 2.5 0 5 0 7.5 0 0.4 1.6-0.1 2.4-1.8 2.3-1.6-0.1-3.2 0-4.9 0z"/>
			<path id="Layer" class="s0" d="m390.8 223.3c-0.2 0.7-0.4 1.3-0.6 2.1-1.3 0-2.7 0.2-3.9 0-2.2-0.3-3.1 0.7-3.2 2.6-0.1 0.6-0.2 1.1-0.3 1.8 1.2 0 2.2 0 3.2 0 1 0 2 0 3.2 0-0.2 0.9-0.4 1.5-0.6 2.3-1.7 0-3.3 0.1-5 0-1.1 0-1.8 0.3-1.9 1.6-0.2 1.2-0.5 2.5-0.9 4.1 1.2 0 2.2 0 3.3 0q1.4 0 2.8 0c0.4 1.6 0 2.3-1.6 2.3-2.4-0.1-4.8 0-7.5 0 0.9-3.7 1.6-7.1 2.5-10.5 0.5-2.1 1.1-4.2 1.7-6.3h8.8z"/>
			<path id="Layer" fill-rule="evenodd" class="s0" d="m227.8 239.8q0 0 0.1 0 0 0 0 0zm11.8-17.1c1.3 6 2.5 11.5 3.7 17.2h-2.4c0-0.1-0.1-0.1-0.2-0.3-0.4-1.2-0.6-3.3-1.3-3.6-1.8-0.5-3.9-0.5-5.7-0.1-0.9 0.2-1.7 1.5-2.3 2.5-0.8 1.3-1.7 2.1-3.6 1.4 3.9-5.6 7.7-11.2 11.8-17.1zm-0.1 10.8c-0.4-1.9-0.7-3.5-1.1-5.6-1.4 2.1-2.5 3.7-3.7 5.6z"/>
			<path id="Layer" fill-rule="evenodd" class="s0" d="m424.4 222.7c1.3 6.1 2.5 11.6 3.7 17.2h-2.6c-0.3-1.2-0.6-2.5-0.9-4.1-2 0-4.1-0.3-6.1 0.1-0.9 0.2-1.8 1.6-2.4 2.6-0.8 1.3-1.8 2-3.5 1.3 3.8-5.5 7.6-11 11.8-17.1zm-4.8 10.8h4.6c-0.3-1.9-0.6-3.5-1-5.6-1.3 2.1-2.4 3.7-3.6 5.6z"/>
			<path id="Layer" class="s0" d="m443.2 236.6c0.4 1.9-0.5 3-2.2 3.4-1.8 0.3-3.8 0.6-5.6 0.3-2.6-0.2-4.2-2.3-4.7-5.1-1.1-6.9 6.5-13.8 13.3-12 2.4 0.7 2.7 1.3 1.7 3.6-5.4-2.8-10.2-1.1-12 4.3-0.7 2-0.9 4 0.7 5.8 1.7 1.7 3.9 1.5 6 0.9 1-0.3 1.9-0.8 2.8-1.2z"/>
			<path id="Layer" class="s0" d="m333.8 225.2c-1.1 0.6-1.7 0.8-2.4 1.2-0.4-0.3-0.8-0.8-1.2-1-1.4-0.6-2.7-0.5-3.7 0.9-1 1.3-0.4 2.4 0.8 3.3 0.3 0.3 0.7 0.5 1 0.7 2.9 1.6 3.7 2.8 3.3 4.8-0.6 2.9-2.8 5-5.6 5.3-3.3 0.4-4.7-0.4-5.4-3.4 0.7-0.3 1.3-0.6 2.2-1 0.4 2 1.9 2.6 3.5 2 1-0.3 2.1-1.4 2.4-2.3 0.3-0.7-0.8-1.8-1.3-2.7-0.1-0.2-0.5-0.3-0.7-0.4-3.5-2-4.2-3.5-3-6.2 1.3-2.8 4.6-4.3 7.4-3.3 0.9 0.4 1.6 1.2 2.7 2.1z"/>
			<path id="Layer" fill-rule="evenodd" class="s0" d="m218.8 240c1.2-5.2 2.5-10.4 3.8-15.6 0.1-0.4 0.8-0.9 1.3-0.9q2.3-0.2 4.5 0c2.5 0.2 3.5 1.7 3 4.1-0.6 2.9-2.4 4.9-5.5 4.8-2.7-0.1-3.5 1.1-3.8 3.3-0.1 1-0.5 2-0.6 3-0.3 1.5-1 2-2.7 1.4zm4.8-9.9c1.1 0 2.1 0.1 3 0 1.5-0.3 2.4-1.5 2.1-3-0.1-0.6-1.2-1.3-2.1-1.6-1.6-0.6-2.1 0.4-2.4 1.9-0.1 0.8-0.3 1.5-0.6 2.7z"/>
			<path id="Layer" class="s0" d="m165.7 240.1h-2.5c0.6-2.5 1.1-4.9 1.6-7.3 0.6-2.6 1.4-5.2 1.9-7.8 0.3-1.3 0.8-1.8 2.2-1.8 2.4 0.2 4.7 0.1 7 0.1 0.2 1.7-0.4 2.3-1.9 2.1-0.5 0-1.1 0-1.6 0-3.6 0-4 0.5-4 4.4h6.2c-0.2 0.9-0.3 1.5-0.5 2.3h-6.4c-0.7 2.8-1.4 5.4-2 8z"/>
			<path id="Layer" class="s0" d="m414.4 229.8c0.3 2-0.6 2.5-2.2 2.4-1.5-0.2-3-0.1-4.6-0.1-0.6 2.2-1 4.3-1.6 6.3-0.4 1.9-0.4 1.9-2.8 1.5 0.8-3.4 1.6-6.8 2.4-10.2q1.8-7.4 10.3-6.2c0.3 1.3-0.2 2-1.7 1.9-0.5 0-0.9 0-1.4 0q-4 0-4.5 4.4h6.1z"/>
			<path id="Layer" class="s0" d="m315 225.5h-4.1c0.1-0.8 0.2-1.5 0.3-2.1h11c0.3 1.6-0.4 2.3-1.9 2-2.2-0.4-3 0.6-3.4 2.7-0.6 3.4-1.6 6.8-2.3 10.2-0.4 1.6-1.1 2.3-2.9 1.6 1.1-4.7 2.2-9.4 3.3-14.4z"/>
			<path id="Layer" class="s0" d="m372.1 225.5h-4.2c-0.1-1.7 0.4-2.3 1.9-2.2 3.1 0.1 6.2 0 9.3 0 0.4 1.7-0.2 2.4-1.7 2.1-2.4-0.4-3.2 0.8-3.6 2.9-0.6 3.4-1.6 6.7-2.3 10.1-0.3 1.8-1.2 2.1-2.9 1.5 1.2-4.7 2.3-9.4 3.5-14.4z"/>
			<path id="Layer" class="s0" d="m247.4 239.7c3.1-5.7 1.1-11-1.5-16.2 2-0.8 2.9-0.2 3.4 1.5 0.5 1.7 1.2 3.3 1.8 5 3.1-1.9 3.9-6.4 7.9-7q0.3 0.2 0.5 0.5c-1.3 1.4-2.4 3-3.8 4.4-3 2.8-4.7 6.3-5.3 10.4-0.2 1.5-0.9 2.2-3 1.4z"/>
			<path id="Layer" class="s0" d="m343.1 240h-2.5c1.4-5.6 2.7-11.1 4-16.7h2.5c-1.3 5.6-2.6 11-4 16.7z"/>
			<path id="Layer" class="s0" d="m156.7 239.8c1.3-5.5 2.6-10.9 3.9-16.5 0.7 0 1.4-0.1 2.2-0.1 0 0.6 0.1 1.2 0 1.6-1.1 4.6-2.2 9.1-3.2 13.6-0.4 1.7-1.3 1.9-2.9 1.4z"/>
			<path id="Layer" class="s0" d="m178 240h-2.4c1.3-5.7 2.6-11.2 4-16.7h2.4c-1.3 5.6-2.6 11-4 16.7z"/>
		</g>
	</g>
</svg>