<svg version="1.2" xmlns="http://www.w3.org/2000/svg" viewBox="0 0 602 355" width="602" height="355">
	<title>Logo-02-svg</title>
	<style>
		.s0 { fill: #000000 } 
	</style>
	<path id="Layer" fill-rule="evenodd" class="s0" d="m553.6 355.6h-505.3c-26.1 0-47.3-21.2-47.3-47.3v-260.6c0-26.1 21.2-47.4 47.3-47.4h505.3c26.2 0 47.4 21.3 47.4 47.4v260.6c0 26.1-21.2 47.3-47.4 47.3zm-505.3-335.2c-15 0-27.3 12.2-27.3 27.3v260.6c0 15.1 12.3 27.3 27.4 27.3h505.3c15 0 27.3-12.2 27.3-27.3v-260.6c0-15.1-12.3-27.3-27.3-27.3z"/>
	<g id="Layer">
		<path id="Layer" fill-rule="evenodd" class="s0" d="m447.4 125.6c4.1 35.2 8.1 69.8 12.3 105.2-4.7 0-9.2 0-13.7 0-3.8 0-7.6-0.1-11.4 0-2.6 0.2-3.6-0.7-3.7-3.4-0.3-6.5-1.1-13-1.4-19.5-0.2-2.2-1-2.9-3.1-2.8-6.1 0-12.2-0.2-18.3 0.1-1.3 0-3.1 1.3-3.7 2.4-3.3 6.8-6.3 13.7-9.6 20.5-0.5 1.2-2 2.6-3.2 2.6-8.8 0.2-17.6 0.1-27.1 0.1 0.7-1.6 1.2-2.7 1.7-3.8 15.9-32.7 31.8-65.4 47.7-98.1 1.2-2.5 2.5-3.4 5.3-3.3 9.2 0.1 18.4 0 28.2 0zm-21.7 34.4q-0.4-0.1-0.8-0.2c-3.4 7.6-6.8 15.1-10.3 22.8h13.1c-0.7-7.7-1.3-15.2-2-22.6z"/>
		<path id="Layer" class="s0" d="m160.4 145.9c7.3 4.5 14.1 8.7 20.8 12.9q0.3-0.4 0.6-0.8c-13.3-10.5-26.5-21-40.5-32h46.1c2 21.8 4 43.7 6.1 66.8 1-2 1.6-3 2.1-4 9.3-20 18.7-40 27.9-60.1 1.1-2.3 2.3-3.2 5-3.2 8.8 0.2 17.6 0.1 26.9 0.1-0.8 1.9-1.4 3.1-2 4.4-16.6 32.3-33.4 64.6-49.9 97-1.6 3-3.3 4-6.6 3.9-8-0.3-16.1-0.1-24.6-0.1-4-28.2-7.9-56.2-11.9-84.9z"/>
		<path id="Layer" class="s0" d="m291.9 223.1c3-7.5 6-14.8 8.8-21.8 6.1 2.1 12 4.8 18.1 5.9 4.6 0.9 9.9 0.5 14.5-0.8 6.2-1.7 7.3-8.4 2.2-12.4-4.6-3.6-9.8-6.3-14.8-9.5-6.6-4.2-12.1-9.4-14.6-17.1-4.7-14.2 2.3-30.5 16.7-37.7 16.2-7.9 32.8-7.8 49.3-0.1 0.5 0.3 1 0.7 1.8 1.2-2.9 7.7-5.7 15.3-8.2 22.1-6.6-1.5-12.8-3.4-19.1-4.3-2.9-0.4-6.3 0.5-9.1 1.6-4.9 2-5.8 6.7-1.6 10 4 3.2 8.9 5.4 13 8.6 4.8 3.7 10 7.3 13.5 12 9.2 12.7 4.7 33-8.4 42.4-13.4 9.5-28.2 10.3-43.7 7.7-7.9-1.3-13.1-3.6-18.4-7.8z"/>
		<path id="Layer" class="s0" d="m269.1 125.9h27.4c-2.8 14.5-5.4 28.8-8.1 43.1-3.6 18.9-7.3 37.8-10.7 56.7-0.7 3.9-1.9 5.5-6.1 5.2-7.3-0.4-14.5-0.1-22.4-0.1 6.7-35.3 13.3-70.1 19.9-104.9z"/>
	</g>
</svg>