<svg version="1.2" xmlns="http://www.w3.org/2000/svg" viewBox="0 0 600 355" width="600" height="355">
	<title>Logo-01-svg</title>
	<style>
		.s0 { fill: #000000 } 
	</style>
	<g id="Layer">
		<path id="Layer" class="s0" d="m426.1 175.5q0-0.7 0-1.4-0.1-0.7-0.1-1.4c-1.1-14.3-6.4-28.4-16.2-40.3q-3.4-4.1-7.1-7.6c-10.1-9.3-22.9-15.7-37.1-18q-1.5-0.2-3.1-0.4-6.3-0.6-12.4-0.4c-15.3 0.9-29.3 6.5-40.7 15.4q-4.9 4.2-9.4 9.4 0-0.1-0.1-0.2c-11.1 12.6-17.9 29.2-17.9 47.4 0 18.2 6.8 34.8 17.9 47.5q0.2-0.1 0.3-0.2 3.4 4.3 7.4 7.8 0.1 0 0.1 0.1 0.5 0.3 0.9 0.7c11.5 9.4 25.9 15.2 41.7 16.1q0.1 0 0.3 0 1.4 0 2.8 0 0.9 0.1 1.8 0 0.7 0 1.3 0c9.1-0.3 18.2-2.3 26.7-6.1q0.1 0 0.3-0.1 1.3-0.6 2.6-1.2 0.6-0.3 1.3-0.7 0.7-0.4 1.5-0.8 1.1-0.6 2.1-1.2 0.3-0.2 0.7-0.4 1.3-0.8 2.5-1.7 0.2 0 0.3-0.1 1.3-0.9 2.7-1.9 0-0.1 0-0.1 1.4-1 2.6-2 0.1-0.1 0.3-0.2 1.1-1 2.2-2 0.3-0.2 0.6-0.5 0.9-0.9 1.9-1.8 0.4-0.4 0.7-0.7 0.9-0.9 1.7-1.8 0.4-0.4 0.8-0.9 0.7-0.8 1.4-1.7 0.5-0.5 0.9-1 0.6-0.8 1.3-1.6 0.4-0.7 0.9-1.3 0.5-0.7 1.1-1.5 0.5-0.7 0.9-1.5 0.5-0.7 0.9-1.4 0.6-0.8 1.1-1.7 0.3-0.6 0.7-1.2 0.5-1 1-2 0.3-0.5 0.5-1 0.6-1.1 1.1-2.3 0.2-0.4 0.3-0.8 0.6-1.2 1.1-2.4 0.1-0.4 0.2-0.7 0.5-1.3 1-2.6 0.1-0.3 0.2-0.6 0.4-1.3 0.8-2.6 0.1-0.4 0.2-0.7 0.3-1.3 0.6-2.6 0.1-0.4 0.2-0.8 0.3-1.2 0.5-2.5 0.1-0.5 0.2-1 0.2-1.2 0.4-2.3 0.1-0.7 0.1-1.4 0.2-0.9 0.3-1.9 0-0.9 0.1-1.8 0.1-0.8 0.1-1.6 0-1.1 0-2.2 0.1-0.7 0.1-1.4-0.1-1.1-0.1-2.1z"/>
		<path id="Layer" class="s0" d="m276 178c0-19.9 7.5-38.1 19.8-51.9-26.2-26.4-70.9-26.9-98.7-1.1-28.8 26.9-31.1 70.8-5.4 100.5 23.5 27.1 69.2 36.3 104 4.2-12.2-13.8-19.7-31.9-19.7-51.7z"/>
	</g>
	<path id="Layer" fill-rule="evenodd" class="s0" d="m552.6 355.6h-505.3c-26.1 0-47.3-21.2-47.3-47.3v-260.6c0-26.1 21.2-47.4 47.3-47.4h505.3c26.2 0 47.4 21.3 47.4 47.4v260.6c0 26.1-21.2 47.3-47.4 47.3zm-505.3-335.2c-15 0-27.3 12.2-27.3 27.3v260.6c0 15.1 12.3 27.3 27.4 27.3h505.3c15 0 27.3-12.2 27.3-27.3v-260.6c0-15.1-12.3-27.3-27.3-27.3z"/>
</svg>